<svg xmlns="http://www.w3.org/2000/svg" viewBox="0 0 1440 400" preserveAspectRatio="none">
  <g fill="none" stroke="currentColor" stroke-width="0.8" opacity="1">
    <path d="M-50,350 Q80,320 200,340 Q350,360 500,310 Q650,260 800,290 Q950,320 1100,280 Q1250,240 1440,270 L1440,400 L-50,400 Z" stroke-width="0.6"/>
    <path d="M-50,310 Q100,280 250,300 Q400,320 550,270 Q700,220 850,250 Q1000,280 1150,240 Q1300,200 1440,230"/>
    <path d="M-50,270 Q120,240 280,260 Q440,280 600,230 Q760,180 910,210 Q1060,240 1210,200 Q1360,160 1440,190"/>
    <path d="M-50,230 Q140,200 310,220 Q480,240 650,190 Q820,140 970,170 Q1120,200 1270,160 Q1380,130 1440,150"/>
    <path d="M-50,190 Q160,160 340,180 Q520,200 700,150 Q880,100 1030,130 Q1180,160 1330,120 Q1410,100 1440,110"/>
    <path d="M-50,150 Q180,120 370,140 Q560,160 750,110 Q940,60 1090,90 Q1240,120 1390,80 L1440,70"/>
    <path d="M-50,110 Q200,80 400,100 Q600,120 800,70 Q1000,20 1150,50 Q1300,80 1440,30"/>
    <path d="M-50,70 Q220,40 430,60 Q640,80 850,30 Q1060,-20 1210,10 Q1360,40 1440,-10"/>
    <path d="M-50,380 Q100,360 220,370 Q380,385 530,350 Q680,315 830,340 Q980,365 1130,330 Q1280,295 1440,320"/>
    <path d="M200,400 Q300,370 420,385 Q540,400 660,365 Q780,330 900,355 Q1020,380 1160,345 Q1300,310 1440,335 L1440,400 Z" stroke-width="0.4"/>
  </g>
</svg>
